<?xml version="1.0" encoding="utf-8"?>
<!-- Generator: Adobe Illustrator 20.0.0, SVG Export Plug-In . SVG Version: 6.00 Build 0)  -->
<svg version="1.1" id="Layer_1" xmlns="http://www.w3.org/2000/svg" xmlns:xlink="http://www.w3.org/1999/xlink" x="0px" y="0px"
	 viewBox="0 0 119.2 247.1" style="enable-background:new 0 0 119.2 247.1;" xml:space="preserve">
<style type="text/css">
	.st0{opacity:0.29;}
	.st1{fill:#F1691A;}
	.st2{fill:#190EFF;}
	.st3{opacity:0.21;}
	.st4{opacity:0.21;fill:#FFFFFF;}
	.st5{fill:#FF2300;}
</style>
<polygon class="st0" points="119.2,220.5 119.1,220.5 119.1,25.9 101,0 100.5,0.4 100.5,220.5 0.5,220.5 0.3,221.2 18.4,247.1 
	119.2,247.1 "/>
<rect x="0.1" class="st1" width="107.2" height="216.2"/>
<rect x="0.1" y="206.8" width="107.2" height="20.6"/>
<rect x="6" y="147.3" class="st2" width="95.5" height="37.2"/>
<rect x="6" y="50.3" class="st2" width="95.5" height="9.4"/>
<rect x="6.4" y="67.6" class="st3" width="1.8" height="72.4"/>
<rect x="29.7" y="74" class="st4" width="1.8" height="59.8"/>
<rect x="21.9" y="152.2" transform="matrix(0.7071 0.7071 -0.7071 0.7071 122.6518 31.8666)" class="st4" width="1.8" height="23.6"/>
<rect x="31.3" y="152.2" transform="matrix(0.7071 0.7071 -0.7071 0.7071 125.3855 25.267)" class="st4" width="1.8" height="23.6"/>
<rect x="65.4" y="152.2" transform="matrix(0.7071 0.7071 -0.7071 0.7071 135.3927 1.1075)" class="st4" width="1.8" height="23.6"/>
<rect x="53.4" y="74" class="st4" width="1.8" height="59.8"/>
<rect x="76.7" y="74" class="st4" width="1.8" height="59.8"/>
<rect x="100" y="67.6" class="st3" width="1.8" height="72.4"/>
<polygon class="st5" points="0,213.5 0,223.4 31.1,223.4 25.1,213.9 "/>
<polygon class="st5" points="107.3,213.5 107.3,223.4 76.3,223.4 82.2,213.9 "/>
</svg>
