<?xml version="1.0" encoding="utf-8"?>
<!-- Generator: Adobe Illustrator 20.0.0, SVG Export Plug-In . SVG Version: 6.00 Build 0)  -->
<svg version="1.1" id="Layer_1" xmlns="http://www.w3.org/2000/svg" xmlns:xlink="http://www.w3.org/1999/xlink" x="0px" y="0px"
	 viewBox="0 0 658.2 467.4" style="enable-background:new 0 0 658.2 467.4;" xml:space="preserve">
<style type="text/css">
	.st0{fill:#878787;}
	.st1{fill:#F1FF1A;}
	.st2{opacity:0.22;}
	.st3{fill:#FF4202;}
</style>
<g>
	<rect class="st0" width="658.2" height="467.1"/>
</g>
<g>
	<polygon class="st1" points="231.7,459.1 242.7,459.1 242.7,443.7 231.7,433 	"/>
	<polygon class="st1" points="231.7,395 231.7,400.1 231.7,405.7 242.7,416.5 242.7,400.1 242.7,395 242.7,389.6 231.7,378.8 	"/>
	<polygon class="st1" points="231.7,340.6 231.7,345.7 231.7,351.3 242.7,362.1 242.7,345.7 242.7,340.6 242.7,335.2 231.7,324.4 	
		"/>
	<polygon class="st1" points="231.7,286.5 231.7,291.7 231.7,297.3 242.7,308.1 242.7,291.7 242.7,286.5 242.7,281.2 231.7,270.4 	
		"/>
	<polygon class="st1" points="231.7,232.1 231.7,237.3 231.7,242.9 242.7,253.7 242.7,237.3 242.7,232.1 242.7,226.7 231.7,216 	"/>
	<polygon class="st1" points="231.7,177.4 231.7,182.6 231.7,188.2 242.7,199 242.7,182.6 242.7,177.4 242.7,172 231.7,161.3 	"/>
	<polygon class="st1" points="231.7,123 231.7,128.2 231.7,133.8 242.7,144.6 242.7,128.2 242.7,123 242.7,117.6 231.7,106.9 	"/>
	<polygon class="st1" points="231.7,69 231.7,74.1 231.7,79.8 242.7,90.6 242.7,74.1 242.7,69 242.7,63.6 231.7,52.8 	"/>
	<polygon class="st1" points="241.6,8.1 231.7,8.1 231.7,25.4 242.7,36.2 242.7,9.2 	"/>
</g>
<rect x="47.9" y="49.4" width="136" height="374.9"/>
<polygon class="st2" points="218.3,101 216.9,101.6 216.9,99.7 197.7,81.1 197.7,81.1 178.3,62.4 150,75.4 148.3,81.1 67.3,81.1 
	67.3,346.4 47.9,410 67,428.5 67,428.5 86.5,447.3 88.2,447.3 87.8,448.6 107.2,467.4 237.7,467.4 237.7,119.8 "/>
<circle class="st3" cx="115.8" cy="117.4" r="52"/>
<g>
	<path class="st0" d="M115.8,189.4c26.5,0,48,21.5,48,48s-21.5,48-48,48s-48-21.5-48-48S89.4,189.4,115.8,189.4 M115.8,185.4
		c-28.7,0-52,23.3-52,52s23.3,52,52,52s52-23.3,52-52S144.6,185.4,115.8,185.4L115.8,185.4z"/>
</g>
<g>
	<path class="st0" d="M115.8,309.4c26.5,0,48,21.5,48,48s-21.5,48-48,48s-48-21.5-48-48S89.4,309.4,115.8,309.4 M115.8,305.4
		c-28.7,0-52,23.3-52,52s23.3,52,52,52s52-23.3,52-52S144.6,305.4,115.8,305.4L115.8,305.4z"/>
</g>
<g>
	<path class="st1" d="M643.7,12.1v442h-631v-442H643.7 M649.7,6.1H6.7v454h643V6.1L649.7,6.1z"/>
</g>
<path class="st2" d="M620.2,434.8H264.5c-1.6,0-2.9-1.3-2.9-2.9V35.8c0-1.6,1.3-2.9,2.9-2.9h355.7c1.6,0,2.9,1.3,2.9,2.9v396.1
	C623.1,433.5,621.8,434.8,620.2,434.8z"/>
<g>
	<path class="st2" d="M347.4,297.2h50.4v23.4l17.2,17h75.8l17.2-17.2l-0.2-36.9l-16.8-16.8h-72.3v-50.4h72.1l17.2-17l-0.2-37.1
		l-16.8-16.8h-76.2l-17,16.8v23.6h-50.4v-48.8l42-42h126.8l42,42v78.3L532,241.6l26.2,26.2v78.3l-42,42H389.4l-42-42V297.2z"/>
	<path class="st3" d="M335.4,285.2h50.4v23.4l17.2,17h75.8l17.2-17.2l-0.2-36.9l-16.8-16.8h-72.3v-50.4h72.1l17.2-17l-0.2-37.1
		l-16.8-16.8h-76.2l-17,16.8v23.6h-50.4v-48.8l42-42h126.8l42,42v78.3L520,229.6l26.2,26.2v78.3l-42,42H377.4l-42-42V285.2z"/>
</g>
</svg>
