<?xml version="1.0" encoding="utf-8"?>
<!-- Generator: Adobe Illustrator 20.0.0, SVG Export Plug-In . SVG Version: 6.00 Build 0)  -->
<svg version="1.1" id="Layer_1" xmlns="http://www.w3.org/2000/svg" xmlns:xlink="http://www.w3.org/1999/xlink" x="0px" y="0px"
	 viewBox="0 0 658.2 467.4" style="enable-background:new 0 0 658.2 467.4;" xml:space="preserve">
<style type="text/css">
	.st0{fill:#878787;}
	.st1{fill:#F1FF1A;}
	.st2{opacity:0.22;}
</style>
<g>
	<rect x="-0.7" y="-0.1" class="st0" width="658.2" height="467.1"/>
</g>
<g>
	<polygon class="st1" points="231,459 242,459 242,443.6 231,432.8 	"/>
	<polygon class="st1" points="231,394.9 231,400 231,405.6 242,416.4 242,400 242,394.9 242,389.5 231,378.7 	"/>
	<polygon class="st1" points="231,340.4 231,345.6 231,351.2 242,362 242,345.6 242,340.4 242,335.1 231,324.3 	"/>
	<polygon class="st1" points="231,286.4 231,291.6 231,297.2 242,308 242,291.6 242,286.4 242,281 231,270.3 	"/>
	<polygon class="st1" points="231,232 231,237.2 231,242.8 242,253.6 242,237.2 242,232 242,226.6 231,215.9 	"/>
	<polygon class="st1" points="231,177.3 231,182.4 231,188.1 242,198.9 242,182.4 242,177.3 242,171.9 231,161.1 	"/>
	<polygon class="st1" points="231,122.9 231,128 231,133.7 242,144.5 242,128 242,122.9 242,117.5 231,106.7 	"/>
	<polygon class="st1" points="231,68.9 231,74 231,79.7 242,90.5 242,74 242,68.9 242,63.5 231,52.7 	"/>
	<polygon class="st1" points="240.8,8 231,8 231,25.3 242,36 242,9.1 	"/>
</g>
<rect x="47.1" y="49.3" width="136" height="374.9"/>
<polygon class="st2" points="217.6,100.9 216.2,101.5 216.2,99.6 197,81 197,81 177.6,62.3 149.3,75.3 147.6,81 66.6,81 66.6,346.3 
	47.1,409.9 66.3,428.4 66.3,428.4 85.8,447.2 87.5,447.2 87.1,448.5 106.5,467.3 237,467.3 237,119.7 "/>
<circle class="st1" cx="115.1" cy="237.3" r="52"/>
<g>
	<path class="st0" d="M115.1,69.3c26.5,0,48,21.5,48,48s-21.5,48-48,48s-48-21.5-48-48S88.7,69.3,115.1,69.3 M115.1,65.3
		c-28.7,0-52,23.3-52,52s23.3,52,52,52s52-23.3,52-52S143.9,65.3,115.1,65.3L115.1,65.3z"/>
</g>
<g>
	<path class="st0" d="M115.1,309.3c26.5,0,48,21.5,48,48s-21.5,48-48,48s-48-21.5-48-48S88.7,309.3,115.1,309.3 M115.1,305.3
		c-28.7,0-52,23.3-52,52c0,28.7,23.3,52,52,52s52-23.3,52-52C167.1,328.5,143.9,305.3,115.1,305.3L115.1,305.3z"/>
</g>
<g>
	<path class="st1" d="M643,12v442H12V12H643 M649,6H6v454h643V6L649,6z"/>
</g>
<path class="st2" d="M619.5,434.7H263.8c-1.6,0-2.9-1.3-2.9-2.9V35.7c0-1.6,1.3-2.9,2.9-2.9h355.7c1.6,0,2.9,1.3,2.9,2.9v396.1
	C622.4,433.4,621.1,434.7,619.5,434.7z"/>
<g>
	<path class="st2" d="M558.4,338.9v50.4H347.7V265.5l42-42H491l16.8-17v-42.8l-17-17.2h-75.8l-17,17.2v23.4h-50.4v-48.8l42-42h126.8
		l42,42v93.6l-42,42H414.9l-16.8,17.2v47.9H558.4z"/>
	<path class="st1" d="M546.4,326.9v50.4H335.7V253.5l42-42H479l16.8-17v-42.8l-17-17.2h-75.8l-17,17.2v23.4h-50.4v-48.8l42-42h126.8
		l42,42v93.6l-42,42H402.9l-16.8,17.2v47.9H546.4z"/>
</g>
</svg>
