<?xml version="1.0" encoding="utf-8"?>
<!-- Generator: Adobe Illustrator 20.0.0, SVG Export Plug-In . SVG Version: 6.00 Build 0)  -->
<svg version="1.1" id="Layer_1" xmlns="http://www.w3.org/2000/svg" xmlns:xlink="http://www.w3.org/1999/xlink" x="0px" y="0px"
	 viewBox="0 0 208.4 361" style="enable-background:new 0 0 208.4 361;" xml:space="preserve">
<style type="text/css">
	.st0{fill:#120AB5;}
	.st1{fill:#BCE77F;}
	.st2{opacity:0.1;}
	.st3{fill:#FF0000;}
	.st4{fill:#F5FF69;}
</style>
<polygon class="st0" points="160.5,24.2 193.8,53.5 193.8,86.5 190.1,89.8 157.1,87.8 "/>
<polygon class="st0" points="207.9,328.3 207.8,328.3 207.8,89.6 176,57.8 175.2,58.3 175.2,328.3 0,328.3 -0.5,329.1 31.3,360.9 
	207.9,360.9 "/>
<rect x="0.3" y="58.3" class="st1" width="175.2" height="211.2"/>
<rect x="0.3" y="269.3" width="175.2" height="59"/>
<rect x="37.1" y="67.3" class="st2" width="3.6" height="192.8"/>
<rect x="83" y="67.3" class="st2" width="3.6" height="192.8"/>
<rect x="94" y="67.3" class="st2" width="3.6" height="192.8"/>
<rect x="49.4" y="-0.1" class="st1" width="77" height="49.2"/>
<rect x="137.9" y="67.3" class="st2" width="3.6" height="192.8"/>
<path class="st3" d="M31,321.1H10.4c-1.6,0-2.9-1.3-2.9-2.9V318c0-1.6,1.3-2.9,2.9-2.9H31c1.6,0,2.9,1.3,2.9,2.9v0.2
	C33.9,319.8,32.6,321.1,31,321.1z"/>
<path class="st3" d="M163,321.1h-20.6c-1.6,0-2.9-1.3-2.9-2.9V318c0-1.6,1.3-2.9,2.9-2.9H163c1.6,0,2.9,1.3,2.9,2.9v0.2
	C165.9,319.8,164.6,321.1,163,321.1z"/>
<rect x="14.7" y="11.5" class="st1" width="146.4" height="49.2"/>
<rect x="14.7" y="45.1" class="st2" width="146.4" height="13.2"/>
<path class="st3" d="M25.5,31.9L25.5,31.9c-1.3,0-2.4-1.1-2.4-2.4v-7.2c0-1.3,1.1-2.4,2.4-2.4h0c1.3,0,2.4,1.1,2.4,2.4v7.2
	C27.9,30.8,26.8,31.9,25.5,31.9z"/>
<path class="st3" d="M35.1,31.9L35.1,31.9c-1.3,0-2.4-1.1-2.4-2.4v-7.2c0-1.3,1.1-2.4,2.4-2.4h0c1.3,0,2.4,1.1,2.4,2.4v7.2
	C37.5,30.8,36.4,31.9,35.1,31.9z"/>
<path class="st3" d="M140.6,31.9L140.6,31.9c-1.3,0-2.4-1.1-2.4-2.4v-7.2c0-1.3,1.1-2.4,2.4-2.4h0c1.3,0,2.4,1.1,2.4,2.4v7.2
	C143,30.8,141.9,31.9,140.6,31.9z"/>
<path class="st3" d="M150.2,31.9L150.2,31.9c-1.3,0-2.4-1.1-2.4-2.4v-7.2c0-1.3,1.1-2.4,2.4-2.4l0,0c1.3,0,2.4,1.1,2.4,2.4v7.2
	C152.6,30.8,151.5,31.9,150.2,31.9z"/>
<path class="st3" d="M156.6,78.7L156.6,78.7c-1.3,0-2.4-1.1-2.4-2.4v-7.2c0-1.3,1.1-2.4,2.4-2.4h0c1.3,0,2.4,1.1,2.4,2.4v7.2
	C159,77.6,157.9,78.7,156.6,78.7z"/>
<path class="st3" d="M166.2,78.7L166.2,78.7c-1.3,0-2.4-1.1-2.4-2.4v-7.2c0-1.3,1.1-2.4,2.4-2.4l0,0c1.3,0,2.4,1.1,2.4,2.4v7.2
	C168.6,77.6,167.5,78.7,166.2,78.7z"/>
<path class="st3" d="M10.7,78.7L10.7,78.7c-1.3,0-2.4-1.1-2.4-2.4v-7.2c0-1.3,1.1-2.4,2.4-2.4h0c1.3,0,2.4,1.1,2.4,2.4v7.2
	C13.1,77.6,12,78.7,10.7,78.7z"/>
<path class="st3" d="M20.3,78.7L20.3,78.7c-1.3,0-2.4-1.1-2.4-2.4v-7.2c0-1.3,1.1-2.4,2.4-2.4h0c1.3,0,2.4,1.1,2.4,2.4v7.2
	C22.7,77.6,21.6,78.7,20.3,78.7z"/>
<rect x="76.3" y="312.7" class="st4" width="24.8" height="9.6"/>
</svg>
