<?xml version="1.0" encoding="utf-8"?>
<!-- Generator: Adobe Illustrator 20.0.0, SVG Export Plug-In . SVG Version: 6.00 Build 0)  -->
<svg version="1.1" id="Layer_1" xmlns="http://www.w3.org/2000/svg" xmlns:xlink="http://www.w3.org/1999/xlink" x="0px" y="0px"
	 viewBox="0 0 208.4 361" style="enable-background:new 0 0 208.4 361;" xml:space="preserve">
<style type="text/css">
	.st0{fill:#120AB5;}
	.st1{fill:#FFFF84;}
	.st2{opacity:0.1;}
	.st3{fill:#FF0000;}
	.st4{fill:#FFB33A;}
	.st5{fill:#F5FF69;}
</style>
<polygon class="st0" points="160.3,24.2 193.7,53.6 193.7,86.6 190,89.9 157,87.9 "/>
<polygon class="st0" points="208.4,328.4 208.3,328.4 208.3,89.7 176.5,57.9 175.7,58.4 175.7,328.4 0.5,328.4 0,329.2 31.8,361 
	208.4,361 "/>
<rect x="0.8" y="58.4" class="st1" width="175.2" height="211.2"/>
<rect x="0.8" y="269.4" width="175.2" height="59"/>
<rect x="86.7" y="171.4" transform="matrix(-1.836970e-16 1 -1 -1.836970e-16 347.7862 170.7911)" class="st2" width="3.6" height="175.8"/>
<rect x="86.7" y="3.4" transform="matrix(-1.836970e-16 1 -1 -1.836970e-16 179.7862 2.7911)" class="st2" width="3.6" height="175.8"/>
<rect x="86.7" y="53.7" transform="matrix(-1.836970e-16 1 -1 -1.836970e-16 230.071 53.0759)" class="st2" width="3.6" height="175.8"/>
<rect x="86.7" y="114.2" transform="matrix(-1.836970e-16 1 -1 -1.836970e-16 290.571 113.5759)" class="st2" width="3.6" height="175.8"/>
<rect x="49.9" class="st1" width="77" height="49.2"/>
<path class="st3" d="M31.5,321.2H10.9c-1.6,0-2.9-1.3-2.9-2.9v-0.2c0-1.6,1.3-2.9,2.9-2.9h20.6c1.6,0,2.9,1.3,2.9,2.9v0.2
	C34.4,319.9,33.1,321.2,31.5,321.2z"/>
<path class="st3" d="M163.5,321.2h-20.6c-1.6,0-2.9-1.3-2.9-2.9v-0.2c0-1.6,1.3-2.9,2.9-2.9h20.6c1.6,0,2.9,1.3,2.9,2.9v0.2
	C166.4,319.9,165.1,321.2,163.5,321.2z"/>
<rect x="15.2" y="11.6" class="st1" width="146.4" height="49.2"/>
<rect x="15.2" y="45.2" class="st2" width="146.4" height="13.2"/>
<path class="st4" d="M26,32L26,32c-1.3,0-2.4-1.1-2.4-2.4v-7.2c0-1.3,1.1-2.4,2.4-2.4h0c1.3,0,2.4,1.1,2.4,2.4v7.2
	C28.4,30.9,27.3,32,26,32z"/>
<path class="st4" d="M35.6,32L35.6,32c-1.3,0-2.4-1.1-2.4-2.4v-7.2c0-1.3,1.1-2.4,2.4-2.4h0c1.3,0,2.4,1.1,2.4,2.4v7.2
	C38,30.9,36.9,32,35.6,32z"/>
<path class="st4" d="M141.1,32L141.1,32c-1.3,0-2.4-1.1-2.4-2.4v-7.2c0-1.3,1.1-2.4,2.4-2.4l0,0c1.3,0,2.4,1.1,2.4,2.4v7.2
	C143.5,30.9,142.4,32,141.1,32z"/>
<path class="st4" d="M150.7,32L150.7,32c-1.3,0-2.4-1.1-2.4-2.4v-7.2c0-1.3,1.1-2.4,2.4-2.4l0,0c1.3,0,2.4,1.1,2.4,2.4v7.2
	C153.1,30.9,152,32,150.7,32z"/>
<path class="st4" d="M157.1,78.8L157.1,78.8c-1.3,0-2.4-1.1-2.4-2.4v-7.2c0-1.3,1.1-2.4,2.4-2.4l0,0c1.3,0,2.4,1.1,2.4,2.4v7.2
	C159.5,77.7,158.4,78.8,157.1,78.8z"/>
<path class="st4" d="M166.7,78.8L166.7,78.8c-1.3,0-2.4-1.1-2.4-2.4v-7.2c0-1.3,1.1-2.4,2.4-2.4l0,0c1.3,0,2.4,1.1,2.4,2.4v7.2
	C169.1,77.7,168,78.8,166.7,78.8z"/>
<path class="st4" d="M11.2,78.8L11.2,78.8c-1.3,0-2.4-1.1-2.4-2.4v-7.2c0-1.3,1.1-2.4,2.4-2.4h0c1.3,0,2.4,1.1,2.4,2.4v7.2
	C13.6,77.7,12.5,78.8,11.2,78.8z"/>
<path class="st4" d="M20.8,78.8L20.8,78.8c-1.3,0-2.4-1.1-2.4-2.4v-7.2c0-1.3,1.1-2.4,2.4-2.4h0c1.3,0,2.4,1.1,2.4,2.4v7.2
	C23.2,77.7,22.1,78.8,20.8,78.8z"/>
<rect x="76.8" y="312.8" class="st5" width="24.8" height="9.6"/>
</svg>
