<?xml version="1.0" encoding="utf-8"?>
<!-- Generator: Adobe Illustrator 20.0.0, SVG Export Plug-In . SVG Version: 6.00 Build 0)  -->
<svg version="1.1" id="Layer_1" xmlns="http://www.w3.org/2000/svg" xmlns:xlink="http://www.w3.org/1999/xlink" x="0px" y="0px"
	 viewBox="0 0 208.4 361" style="enable-background:new 0 0 208.4 361;" xml:space="preserve">
<style type="text/css">
	.st0{fill:#120AB5;}
	.st1{fill:#FF7D49;}
	.st2{opacity:0.1;}
	.st3{fill:#FF0000;}
	.st4{fill:#FFFF84;}
	.st5{fill:#F5FF69;}
</style>
<polygon class="st0" points="160.3,24.6 193.7,54 193.7,87 190,90.3 157,88.3 "/>
<polygon class="st0" points="208.4,328.8 208.3,328.8 208.3,90.1 176.5,58.3 175.7,58.8 175.7,328.8 0.5,328.8 0,329.6 31.8,361.4 
	208.4,361.4 "/>
<rect x="0.8" y="58.8" class="st1" width="175.2" height="211.2"/>
<rect x="0.8" y="269.8" width="175.2" height="59"/>
<rect x="35.6" y="82.8" class="st2" width="3.6" height="154.8"/>
<rect x="69.2" y="82.8" class="st2" width="3.6" height="154.8"/>
<rect x="102.8" y="82.8" class="st2" width="3.6" height="154.8"/>
<rect x="49.9" y="0.4" class="st1" width="77" height="49.2"/>
<rect x="136.4" y="82.8" class="st2" width="3.6" height="154.8"/>
<path class="st3" d="M31.5,321.6H10.9c-1.6,0-2.9-1.3-2.9-2.9v-0.2c0-1.6,1.3-2.9,2.9-2.9h20.6c1.6,0,2.9,1.3,2.9,2.9v0.2
	C34.4,320.3,33.1,321.6,31.5,321.6z"/>
<path class="st3" d="M163.5,321.6h-20.6c-1.6,0-2.9-1.3-2.9-2.9v-0.2c0-1.6,1.3-2.9,2.9-2.9h20.6c1.6,0,2.9,1.3,2.9,2.9v0.2
	C166.4,320.3,165.1,321.6,163.5,321.6z"/>
<rect x="15.2" y="12" class="st1" width="146.4" height="49.2"/>
<rect x="15.2" y="45.6" class="st2" width="146.4" height="13.2"/>
<path class="st4" d="M26,32.4L26,32.4c-1.3,0-2.4-1.1-2.4-2.4v-7.2c0-1.3,1.1-2.4,2.4-2.4h0c1.3,0,2.4,1.1,2.4,2.4V30
	C28.4,31.3,27.3,32.4,26,32.4z"/>
<path class="st4" d="M35.6,32.4L35.6,32.4c-1.3,0-2.4-1.1-2.4-2.4v-7.2c0-1.3,1.1-2.4,2.4-2.4h0c1.3,0,2.4,1.1,2.4,2.4V30
	C38,31.3,36.9,32.4,35.6,32.4z"/>
<path class="st4" d="M141.1,32.4L141.1,32.4c-1.3,0-2.4-1.1-2.4-2.4v-7.2c0-1.3,1.1-2.4,2.4-2.4l0,0c1.3,0,2.4,1.1,2.4,2.4V30
	C143.5,31.3,142.4,32.4,141.1,32.4z"/>
<path class="st4" d="M150.7,32.4L150.7,32.4c-1.3,0-2.4-1.1-2.4-2.4v-7.2c0-1.3,1.1-2.4,2.4-2.4l0,0c1.3,0,2.4,1.1,2.4,2.4V30
	C153.1,31.3,152,32.4,150.7,32.4z"/>
<path class="st4" d="M157.1,79.2L157.1,79.2c-1.3,0-2.4-1.1-2.4-2.4v-7.2c0-1.3,1.1-2.4,2.4-2.4l0,0c1.3,0,2.4,1.1,2.4,2.4v7.2
	C159.5,78.1,158.4,79.2,157.1,79.2z"/>
<path class="st4" d="M166.7,79.2L166.7,79.2c-1.3,0-2.4-1.1-2.4-2.4v-7.2c0-1.3,1.1-2.4,2.4-2.4l0,0c1.3,0,2.4,1.1,2.4,2.4v7.2
	C169.1,78.1,168,79.2,166.7,79.2z"/>
<path class="st4" d="M11.2,79.2L11.2,79.2c-1.3,0-2.4-1.1-2.4-2.4v-7.2c0-1.3,1.1-2.4,2.4-2.4h0c1.3,0,2.4,1.1,2.4,2.4v7.2
	C13.6,78.1,12.5,79.2,11.2,79.2z"/>
<path class="st4" d="M20.8,79.2L20.8,79.2c-1.3,0-2.4-1.1-2.4-2.4v-7.2c0-1.3,1.1-2.4,2.4-2.4h0c1.3,0,2.4,1.1,2.4,2.4v7.2
	C23.2,78.1,22.1,79.2,20.8,79.2z"/>
<rect x="76.8" y="313.2" class="st5" width="24.8" height="9.6"/>
</svg>
