<?xml version="1.0" encoding="utf-8"?>
<!-- Generator: Adobe Illustrator 20.0.0, SVG Export Plug-In . SVG Version: 6.00 Build 0)  -->
<svg version="1.1" id="Layer_1" xmlns="http://www.w3.org/2000/svg" xmlns:xlink="http://www.w3.org/1999/xlink" x="0px" y="0px"
	 viewBox="0 0 658.2 467.4" style="enable-background:new 0 0 658.2 467.4;" xml:space="preserve">
<style type="text/css">
	.st0{fill:#878787;}
	.st1{fill:#F1FF1A;}
	.st2{opacity:0.22;}
	.st3{fill:#2DF300;}
</style>
<g>
	<rect x="-0.7" y="0.4" class="st0" width="658.2" height="467.1"/>
</g>
<g>
	<polygon class="st1" points="231,459.4 242,459.4 242,444.1 231,433.3 	"/>
	<polygon class="st1" points="231,395.3 231,400.5 231,406.1 242,416.9 242,400.5 242,395.3 242,389.9 231,379.2 	"/>
	<polygon class="st1" points="231,340.9 231,346.1 231,351.7 242,362.5 242,346.1 242,340.9 242,335.5 231,324.8 	"/>
	<polygon class="st1" points="231,286.9 231,292 231,297.7 242,308.5 242,292 242,286.9 242,281.5 231,270.7 	"/>
	<polygon class="st1" points="231,232.5 231,237.6 231,243.3 242,254.1 242,237.6 242,232.5 242,227.1 231,216.3 	"/>
	<polygon class="st1" points="231,177.8 231,182.9 231,188.6 242,199.3 242,182.9 242,177.8 242,172.4 231,161.6 	"/>
	<polygon class="st1" points="231,123.4 231,128.5 231,134.2 242,144.9 242,128.5 242,123.4 242,118 231,107.2 	"/>
	<polygon class="st1" points="231,69.4 231,74.5 231,80.1 242,90.9 242,74.5 242,69.4 242,64 231,53.2 	"/>
	<polygon class="st1" points="240.8,8.4 231,8.4 231,25.7 242,36.5 242,9.6 	"/>
</g>
<rect x="47.1" y="49.7" width="136" height="374.9"/>
<polygon class="st2" points="217.6,101.4 216.2,102 216.2,100 197,81.5 197,81.5 177.6,62.7 149.3,75.8 147.6,81.5 66.6,81.5 
	66.6,346.8 47.1,410.4 66.3,428.9 66.3,428.9 85.8,447.7 87.5,447.7 87.1,449 106.5,467.8 237,467.8 237,120.1 "/>
<circle class="st3" cx="115.1" cy="357.7" r="52"/>
<g>
	<path class="st0" d="M115.1,69.7c26.5,0,48,21.5,48,48s-21.5,48-48,48s-48-21.5-48-48S88.7,69.7,115.1,69.7 M115.1,65.7
		c-28.7,0-52,23.3-52,52s23.3,52,52,52s52-23.3,52-52S143.9,65.7,115.1,65.7L115.1,65.7z"/>
</g>
<g>
	<path class="st0" d="M115.1,189.7c26.5,0,48,21.5,48,48s-21.5,48-48,48s-48-21.5-48-48S88.7,189.7,115.1,189.7 M115.1,185.7
		c-28.7,0-52,23.3-52,52s23.3,52,52,52s52-23.3,52-52S143.9,185.7,115.1,185.7L115.1,185.7z"/>
</g>
<g>
	<path class="st1" d="M643,12.4v442H12v-442H643 M649,6.4H6v454h643V6.4L649,6.4z"/>
</g>
<path class="st2" d="M619.5,435.2H263.8c-1.6,0-2.9-1.3-2.9-2.9V36.2c0-1.6,1.3-2.9,2.9-2.9h355.7c1.6,0,2.9,1.3,2.9,2.9v396.1
	C622.4,433.9,621.1,435.2,619.5,435.2z"/>
<g>
	<path class="st2" d="M438,95.1h50.4v293H438V95.1z"/>
	<path class="st3" d="M426.7,83.8h50.4v293h-50.4V83.8z"/>
</g>
</svg>
