<?xml version="1.0" encoding="utf-8"?>
<!-- Generator: Adobe Illustrator 20.0.0, SVG Export Plug-In . SVG Version: 6.00 Build 0)  -->
<svg version="1.1" id="Layer_1" xmlns="http://www.w3.org/2000/svg" xmlns:xlink="http://www.w3.org/1999/xlink" x="0px" y="0px"
	 viewBox="0 0 69 81" style="enable-background:new 0 0 69 81;" xml:space="preserve">
<style type="text/css">
	.st0{opacity:0.29;}
	.st1{fill:#F1FF1A;}
</style>
<rect x="0" y="0.5" class="st0" width="69" height="81"/>
<g>
	<path class="st1" d="M17.6,40.8c0-10.2,5.8-21.7,18.5-21.7c8.2,0,12.2,4.4,15.1,9L44,32.2c-1.9-2.8-4.3-5.3-7.9-5.3
		c-7.7,0-10.1,7.8-10.1,13.9c0,7.1,2.9,13.9,10.1,13.9c4.1,0,7.3-3.1,7.3-6.8v-0.5h-7.1v-7.7h15.4V46c0,10.7-6.8,16.6-15.6,16.6
		C23.1,62.5,17.6,51.8,17.6,40.8z"/>
</g>
</svg>
