<?xml version="1.0" encoding="utf-8"?>
<!-- Generator: Adobe Illustrator 20.0.0, SVG Export Plug-In . SVG Version: 6.00 Build 0)  -->
<svg version="1.1" id="Layer_1" xmlns="http://www.w3.org/2000/svg" xmlns:xlink="http://www.w3.org/1999/xlink" x="0px" y="0px"
	 viewBox="0 0 559.5 315.8" style="enable-background:new 0 0 559.5 315.8;" xml:space="preserve">
<style type="text/css">
	.st0{fill:#C2C2C2;}
	.st1{fill:#EEEEEE;}
	.st2{fill:#808080;}
	.st3{opacity:0.35;}
	.st4{fill:#22AA44;}
	.st5{fill:#FFFFFF;}
	.st6{fill:none;stroke:#FFFFFF;stroke-width:0.25;stroke-miterlimit:10;}
</style>
<rect x="0.1" y="215.3" class="st0" width="559.5" height="12"/>
<rect y="217.5" class="st1" width="559.5" height="2.6"/>
<rect y="224.8" class="st2" width="559.5" height="2.6"/>
<rect x="0.1" y="108.8" class="st0" width="559.5" height="12"/>
<rect y="111" class="st1" width="559.5" height="2.6"/>
<rect y="118.3" class="st2" width="559.5" height="2.6"/>
<rect x="8.3" y="108.8" class="st3" width="515" height="12.2"/>
<rect x="8.3" y="215.2" class="st3" width="515" height="12.2"/>
<g>
	<path class="st4" d="M494.1,311.3H36.4c-7.7,0-13.9-6.2-13.9-13.9v-279c0-7.7,6.2-13.9,13.9-13.9h457.7c7.7,0,13.9,6.2,13.9,13.9
		v279C508,305.1,501.8,311.3,494.1,311.3z"/>
	<path class="st5" d="M494.1,315.8H36.4c-10.2,0-18.4-8.3-18.4-18.4v-279C17.9,8.3,26.2,0,36.4,0h457.7c10.2,0,18.4,8.3,18.4,18.4
		v279C512.5,307.6,504.2,315.8,494.1,315.8z M36.4,9c-5.2,0-9.4,4.2-9.4,9.4v279c0,5.2,4.2,9.4,9.4,9.4h457.7c5.2,0,9.4-4.2,9.4-9.4
		v-279c0-5.2-4.2-9.4-9.4-9.4H36.4z"/>
</g>
<rect x="59.3" y="46.7" class="st6" width="408.7" height="226"/>
</svg>
