<?xml version="1.0" encoding="utf-8"?>
<!-- Generator: Adobe Illustrator 20.0.0, SVG Export Plug-In . SVG Version: 6.00 Build 0)  -->
<svg version="1.1" id="Layer_1" xmlns="http://www.w3.org/2000/svg" xmlns:xlink="http://www.w3.org/1999/xlink" x="0px" y="0px"
	 viewBox="0 0 961.6 386" style="enable-background:new 0 0 961.6 386;" xml:space="preserve">
<style type="text/css">
	.st0{fill:#C2C2C2;}
	.st1{fill:#EEEEEE;}
	.st2{fill:#808080;}
	.st3{opacity:0.35;}
	.st4{fill:#22AA44;}
	.st5{fill:#FFFFFF;}
</style>
<rect x="0.1" y="250.4" class="st0" width="961.4" height="12"/>
<rect y="252.6" class="st1" width="961.5" height="2.6"/>
<rect y="259.9" class="st2" width="961.5" height="2.6"/>
<rect x="0.1" y="143.9" class="st0" width="961.4" height="12"/>
<rect y="146.1" class="st1" width="961.5" height="2.6"/>
<rect y="153.4" class="st2" width="961.5" height="2.6"/>
<g>
	<g>
		<polygon class="st0" points="961.6,154.9 870.3,251.9 860.3,251.9 951.6,154.9 		"/>
		<polygon class="st1" points="955.6,154.9 864.3,251.9 862.1,251.9 953.4,154.9 		"/>
		<polygon class="st2" points="961.6,154.9 870.4,251.9 868.2,251.9 959.4,154.9 		"/>
	</g>
	<g>
		<polygon class="st0" points="869.3,154.9 960.6,251.8 950.6,251.8 859.4,154.9 		"/>
		<polygon class="st1" points="863.4,154.9 954.7,251.8 952.5,251.8 861.2,154.9 		"/>
		<polygon class="st2" points="869.4,154.9 960.7,251.8 958.5,251.8 867.2,154.9 		"/>
	</g>
</g>
<g>
	<g>
		<polygon class="st0" points="861.6,154.9 770.3,251.9 760.3,251.9 851.6,154.9 		"/>
		<polygon class="st1" points="855.6,154.9 764.3,251.9 762.1,251.9 853.4,154.9 		"/>
		<polygon class="st2" points="861.6,154.9 770.4,251.9 768.2,251.9 859.4,154.9 		"/>
	</g>
	<g>
		<polygon class="st0" points="769.3,154.9 860.6,251.8 850.6,251.8 759.4,154.9 		"/>
		<polygon class="st1" points="763.4,154.9 854.7,251.8 852.5,251.8 761.2,154.9 		"/>
		<polygon class="st2" points="769.4,154.9 860.7,251.8 858.5,251.8 767.2,154.9 		"/>
	</g>
</g>
<g>
	<g>
		<polygon class="st0" points="760.6,154.9 669.3,251.9 659.3,251.9 750.6,154.9 		"/>
		<polygon class="st1" points="754.6,154.9 663.3,251.9 661.1,251.9 752.4,154.9 		"/>
		<polygon class="st2" points="760.6,154.9 669.4,251.9 667.2,251.9 758.4,154.9 		"/>
	</g>
	<g>
		<polygon class="st0" points="668.3,154.9 759.6,251.8 749.6,251.8 658.4,154.9 		"/>
		<polygon class="st1" points="662.4,154.9 753.7,251.8 751.5,251.8 660.2,154.9 		"/>
		<polygon class="st2" points="668.4,154.9 759.7,251.8 757.5,251.8 666.2,154.9 		"/>
	</g>
</g>
<g>
	<g>
		<polygon class="st0" points="201.6,154.9 110.3,251.9 100.3,251.9 191.6,154.9 		"/>
		<polygon class="st1" points="195.6,154.9 104.3,251.9 102.1,251.9 193.4,154.9 		"/>
		<polygon class="st2" points="201.6,154.9 110.4,251.9 108.2,251.9 199.4,154.9 		"/>
	</g>
	<g>
		<polygon class="st0" points="109.3,154.9 200.6,251.8 190.6,251.8 99.4,154.9 		"/>
		<polygon class="st1" points="103.4,154.9 194.7,251.8 192.5,251.8 101.2,154.9 		"/>
		<polygon class="st2" points="109.4,154.9 200.7,251.8 198.5,251.8 107.2,154.9 		"/>
	</g>
</g>
<g>
	<g>
		<polygon class="st0" points="301.6,154.9 210.3,251.9 200.3,251.9 291.6,154.9 		"/>
		<polygon class="st1" points="295.6,154.9 204.3,251.9 202.1,251.9 293.4,154.9 		"/>
		<polygon class="st2" points="301.6,154.9 210.4,251.9 208.2,251.9 299.4,154.9 		"/>
	</g>
	<g>
		<polygon class="st0" points="209.3,154.9 300.6,251.8 290.6,251.8 199.4,154.9 		"/>
		<polygon class="st1" points="203.4,154.9 294.7,251.8 292.5,251.8 201.2,154.9 		"/>
		<polygon class="st2" points="209.4,154.9 300.7,251.8 298.5,251.8 207.2,154.9 		"/>
	</g>
</g>
<g>
	<g>
		<polygon class="st0" points="102.6,154.9 11.3,251.9 1.3,251.9 92.6,154.9 		"/>
		<polygon class="st1" points="96.6,154.9 5.3,251.9 3.1,251.9 94.4,154.9 		"/>
		<polygon class="st2" points="102.6,154.9 11.4,251.9 9.2,251.9 100.4,154.9 		"/>
	</g>
	<g>
		<polygon class="st0" points="10.3,154.9 101.6,251.8 91.6,251.8 0.4,154.9 		"/>
		<polygon class="st1" points="4.4,154.9 95.7,251.8 93.5,251.8 2.2,154.9 		"/>
		<polygon class="st2" points="10.4,154.9 101.7,251.8 99.5,251.8 8.2,154.9 		"/>
	</g>
</g>
<rect x="225.6" y="143.9" class="st3" width="515" height="12.2"/>
<rect x="225.6" y="250.2" class="st3" width="515" height="12.2"/>
<g>
	<path class="st4" d="M711.4,381H253.7c-7.7,0-13.9-6.2-13.9-13.9V18.9c0-7.7,6.2-13.9,13.9-13.9h457.7c7.7,0,13.9,6.2,13.9,13.9
		v348.1C725.3,374.8,719.1,381,711.4,381z"/>
	<path class="st5" d="M711.4,386H253.7c-10.4,0-18.9-8.5-18.9-18.9V18.9c0-10.4,8.5-18.9,18.9-18.9h457.7c10.4,0,18.9,8.5,18.9,18.9
		v348.1C730.3,377.5,721.8,386,711.4,386z M253.7,10c-4.9,0-9,4-9,9v348.1c0,4.9,4,9,9,9h457.7c4.9,0,9-4,9-9V18.9c0-4.9-4-9-9-9
		H253.7z"/>
</g>
</svg>
